<svg width="32" height="32" viewBox="0 0 32 32" fill="none" xmlns="http://www.w3.org/2000/svg">
<path d="M12.3882 22.1644C12.3882 20.9495 12.9818 19.8764 13.8904 19.2096C13.8904 16.9342 13.8904 4.9357 13.8904 4.16217C13.8904 2.96735 14.8584 2 16.0532 2C17.2477 2 18.2154 2.96735 18.2154 4.16217C18.2154 4.28083 18.2154 4.65893 18.2154 5.222C18.2249 5.22166 18.2334 5.21928 18.2436 5.21928H20.7526C20.9736 5.21928 21.1538 5.39133 21.1538 5.6035V6.70753C21.1538 6.91936 20.9739 7.09107 20.7526 7.09107H18.2436C18.2334 7.09107 18.2249 7.08937 18.2154 7.08869C18.2154 7.88535 18.2154 8.79184 18.2154 9.74558C18.2249 9.74524 18.2334 9.74286 18.2436 9.74286H20.7526C20.9736 9.74286 21.1538 9.91491 21.1538 10.1274V11.2308C21.1538 11.4429 20.9739 11.615 20.7526 11.615H18.2436C18.2334 11.615 18.2249 11.6126 18.2154 11.6123C18.2154 12.5092 18.2154 13.4099 18.2154 14.2698C18.2249 14.2688 18.2334 14.2675 18.2436 14.2675H20.7526C20.9736 14.2675 21.1538 14.4392 21.1538 14.651V15.755C21.1538 15.9669 20.9739 16.1382 20.7526 16.1382H18.2436C18.2334 16.1382 18.2249 16.1369 18.2154 16.1355C18.2154 17.5 18.2154 18.6132 18.2154 19.2096C19.1249 19.8767 19.7183 20.9495 19.7183 22.1644C19.7183 24.1878 18.0767 25.828 16.0536 25.828C14.0294 25.828 12.3882 24.1878 12.3882 22.1644ZM20.3225 20.161C20.5839 20.7444 20.7308 21.3895 20.7308 22.0698C20.7308 22.1222 20.7291 22.1749 20.7271 22.2279C21.3578 22.0828 22.1249 22.2205 23.0174 23.0487C24.8991 24.7964 27.2503 24.8189 29.4676 23.112C30.8844 22.0198 31.6287 22.0542 31.6355 22.0542C31.5862 22.0511 31.5621 22.0423 31.5621 22.0423L32 19.976C31.6464 19.9015 30.3258 19.7856 28.1786 21.4384C26.7637 22.5278 25.5808 22.5479 24.4537 21.5013C23.1657 20.3045 21.7308 19.8573 20.3225 20.161ZM0.365518 22.0539C0.371978 22.0539 1.11628 22.0195 2.53279 23.1116C4.74969 24.8189 7.10091 24.7961 8.98324 23.0484C9.94685 22.1538 10.7649 22.0658 11.4235 22.2677C11.4208 22.2018 11.4184 22.1361 11.4184 22.0695C11.4184 21.4003 11.5602 20.7645 11.8146 20.1902C10.3634 19.8261 8.87682 20.2647 7.54667 21.5006C6.41986 22.5472 5.23626 22.5275 3.82111 21.4377C1.67424 19.7853 0.354297 19.9009 0.000679984 19.9753L0.438622 22.0416C0.438282 22.0419 0.41414 22.0511 0.365518 22.0539ZM28.1786 26.8144C26.7637 27.9032 25.5808 27.9232 24.4537 26.8766C22.5312 25.0905 20.2827 24.9647 18.2837 26.5315C17.4106 27.2167 16.7465 27.6424 16.1406 27.6505C16.092 27.6522 16.0457 27.6566 16.0002 27.6634C15.9539 27.6563 15.9073 27.6522 15.8594 27.6505C15.2538 27.6424 14.5898 27.2167 13.7156 26.5315C11.7177 24.9647 9.46913 25.0905 7.54599 26.8766C6.41918 27.9232 5.23558 27.9035 3.82043 26.8144C1.67356 25.1613 0.353617 25.2772 0 25.3524L0.437942 27.4176C0.437942 27.4176 0.4138 27.4265 0.365178 27.4295C0.371638 27.4295 1.11594 27.3969 2.53244 28.4873C4.74935 30.1945 7.10057 30.1724 8.9829 28.4241C10.5109 27.0052 11.6724 27.6128 12.4133 28.1932C13.4133 28.9773 14.5014 29.7443 15.8312 29.7624C15.8363 29.7624 15.8407 29.7624 15.8458 29.7624C15.8982 29.7624 15.9488 29.7549 15.9998 29.7464C16.0505 29.7545 16.1012 29.7624 16.1535 29.7624C16.159 29.7624 16.1634 29.7624 16.1685 29.7624C17.4979 29.744 18.5863 28.9769 19.5863 28.1932C20.3272 27.6128 21.4884 27.0052 23.0168 28.4241C24.8984 30.1718 27.2496 30.1942 29.4669 28.4873C30.8837 27.3952 31.628 27.4295 31.6348 27.4295C31.5855 27.4265 31.5614 27.4176 31.5614 27.4176L31.9993 25.3524C31.6467 25.2772 30.3261 25.1613 28.1786 26.8144Z" fill="black"/>
</svg>
