<svg width="32" height="29" viewBox="0 0 32 29" fill="none" xmlns="http://www.w3.org/2000/svg">
<path d="M10.6909 1.41818C10.6909 0.618182 10.0364 0 9.27276 0H6.18185C5.38185 0 4.76367 0.618182 4.76367 1.41818V3.30909H10.6909V1.41818V1.41818Z" fill="black"/>
<path d="M27.2364 1.41818C27.2364 0.618182 26.6182 0 25.8182 0H22.7273C21.9273 0 21.3091 0.618182 21.3091 1.41818V3.30909H27.2364V1.41818V1.41818Z" fill="black"/>
<path d="M32 25.9273V6.65456C32 5.38183 30.9818 4.36365 29.7091 4.36365H2.29091C1.01818 4.36365 0 5.38183 0 6.65456V25.9273C0 27.2 1.01818 28.2182 2.29091 28.2182H29.6727C30.9455 28.2182 32 27.2 32 25.9273ZM9.16364 10.8H8.76364V11.2C8.76364 11.7818 8.29091 12.2909 7.67273 12.2909C7.05455 12.2909 6.58182 11.8182 6.58182 11.2V10.8H6.18182C5.6 10.8 5.09091 10.3273 5.09091 9.7091C5.09091 9.12728 5.56364 8.61819 6.18182 8.61819H6.58182V8.21819C6.58182 7.63637 7.05455 7.12728 7.67273 7.12728C8.29091 7.12728 8.76364 7.60001 8.76364 8.21819V8.61819H9.16364C9.74546 8.61819 10.2545 9.09092 10.2545 9.7091C10.2545 10.2909 9.78182 10.8 9.16364 10.8ZM25.7455 10.8H22.8C22.2182 10.8 21.7091 10.3273 21.7091 9.7091C21.7091 9.12728 22.1818 8.61819 22.8 8.61819H25.7455C26.3273 8.61819 26.8364 9.09092 26.8364 9.7091C26.8364 10.2909 26.3636 10.8 25.7455 10.8Z" fill="black"/>
<path d="M17.5 10L14 15.5H18L14 22" stroke="white" stroke-width="2"/>
</svg>
