<svg width="32" height="32" viewBox="0 0 32 32" fill="none" xmlns="http://www.w3.org/2000/svg">
<path d="M26.2856 16.5726C24.7028 16.5726 23.4285 17.8468 23.4285 19.4296V26.2867C23.4285 27.8696 24.7028 29.1439 26.2856 29.1439H28.5713C30.1542 29.1439 31.4285 27.8696 31.4285 26.2867V19.4296C31.4285 17.8468 30.1542 16.5726 28.5713 16.5726H26.2856ZM25.7142 18.8582H26.857V20.0011H25.7142V18.8582ZM27.9999 18.8582H29.1428V20.0011H27.9999V18.8582ZM25.7142 21.1439H26.857V22.2868H25.7142V21.1439ZM27.9999 21.1439H29.1428V22.2868H27.9999V21.1439ZM25.7142 23.4297H26.857V24.5726H25.7142V23.4297ZM27.9999 23.4297H29.1428V24.5726H27.9999V23.4297ZM25.7142 25.7154H26.857V26.8582H25.7142V25.7154ZM27.9999 25.7154H29.1428V26.8582H27.9999V25.7154Z" fill="black"/>
<path d="M14.2857 18.8582C13.0194 18.8582 12 19.8776 12 21.1439V26.8581C12 28.1244 13.0194 29.1439 14.2857 29.1439H17.7143C18.9806 29.1439 20 28.1244 20 26.8581V21.1439C20 19.8776 18.9806 18.8582 17.7143 18.8582H14.2857ZM14.2857 21.1439H15.4286V22.2868H14.2857V21.1439ZM16.5714 21.1439H17.7143V22.2868H16.5714V21.1439ZM14.2857 23.4297H15.4286V24.5725H14.2857V23.4297ZM16.5714 23.4297H17.7143V24.5725H16.5714V23.4297ZM14.2857 25.7154H15.4286V26.8581H14.2857V25.7154ZM16.5714 25.7154H17.7143V26.8581H16.5714V25.7154Z" fill="black"/>
<path d="M2.85725 18.8582C1.59096 18.8582 0.571533 19.8776 0.571533 21.1439V26.8581C0.571533 28.1244 1.59096 29.1439 2.85725 29.1439H6.28582C7.5521 29.1439 8.57153 28.1244 8.57153 26.8581V21.1439C8.57153 19.8776 7.5521 18.8582 6.28582 18.8582H2.85725ZM2.85725 21.1439H4.0001V22.2868H2.85725V21.1439ZM5.14296 21.1439H6.28582V22.2868H5.14296V21.1439ZM2.85725 23.4297H4.0001V24.5725H2.85725V23.4297ZM5.14296 23.4297H6.28582V24.5725H5.14296V23.4297ZM2.85725 25.7154H4.0001V26.8581H2.85725V25.7154ZM5.14296 25.7154H6.28582V26.8581H5.14296V25.7154Z" fill="black"/>
<path fill-rule="evenodd" clip-rule="evenodd" d="M8 4.57141V6.57138C8 6.98648 7.84942 7.38614 7.57589 7.69883L4.70759 10.9777C4.25196 11.4984 4 12.1675 4 12.8594V18H5.14286V12.8594C5.14286 12.4439 5.29343 12.0426 5.56696 11.73L8.43527 8.45323C8.89089 7.93252 9.14285 7.26327 9.14286 6.57138V4.57141H8Z" fill="black"/>
<path fill-rule="evenodd" clip-rule="evenodd" d="M18.2856 4.57141V7.26791C18.2856 7.62513 18.1741 7.97482 17.9664 8.26565L15.9597 11.0738C15.6137 11.5582 15.4285 12.1392 15.4285 12.7345V18H16.5713V12.7345C16.5713 12.3772 16.6828 12.0275 16.8905 11.7367L18.8972 8.92857C19.2433 8.44414 19.4284 7.86335 19.4285 7.26791V4.57141H18.2856Z" fill="black"/>
<path fill-rule="evenodd" clip-rule="evenodd" d="M26.8572 4.57141V15.7144H28V4.57141H26.8572Z" fill="black"/>
<path fill-rule="evenodd" clip-rule="evenodd" d="M0 4V5.14287H32V4H0Z" fill="black"/>
</svg>
