<svg width="32" height="32" viewBox="0 0 32 32" fill="none" xmlns="http://www.w3.org/2000/svg">
<path d="M22.9875 4.84768C16.7155 3.27968 14.9002 3.2 14.6 3.2V0H6.6V4.19328C5.98272 4.9472 5 6.39936 5 8V28.8C5 30.3517 6.12192 32 8.2 32H24.2C26.2781 32 27.4 30.3517 27.4 28.8V11.2C27.4 9.02016 26.0314 5.60768 22.9875 4.84768ZM24.2 27.2C24.2 28.0838 23.4845 28.8 22.6 28.8H9.8C8.91552 28.8 8.2 28.0838 8.2 27.2V12.8C8.2 11.8605 9.09152 10.9741 10.1875 11.2477L22.9875 14.4477C23.7002 14.6259 24.2 15.2656 24.2 16V27.2ZM24.2 11.2C24.2 12.2838 23.1782 12.9939 22.2125 12.7523L15.8125 11.1523C15.1002 10.9741 14.6 10.3344 14.6 9.6V8C14.6 6.77856 15.7571 6.24032 16.5875 6.44768L22.9875 8.04768C23.7002 8.22592 24.2 8.8656 24.2 9.6V11.2ZM9.8 27.2H22.6V16L9.8 12.8V27.2ZM16.2 16C16.2 16 19.4 19.2 19.4 22.4C19.4 24.167 17.967 25.6 16.2 25.6C14.433 25.6 13 24.167 13 22.4C13 19.2 16.2 16 16.2 16Z" fill="black"/>
</svg>
