<svg width="32" height="32" viewBox="0 0 32 32" fill="none" xmlns="http://www.w3.org/2000/svg">
<path d="M16.0067 1.4153e-06C12.8422 -0.0013293 9.7484 0.935755 7.11647 2.69275C4.48454 4.44975 2.43273 6.94775 1.2205 9.87087C0.00827396 12.794 -0.309927 16.0109 0.306138 19.1149C0.922202 22.2188 2.44486 25.0704 4.68157 27.309C6.91828 29.5476 9.76857 31.0726 12.872 31.6913C15.9755 32.3099 19.1927 31.9944 22.1168 30.7846C25.0409 29.5748 27.5406 27.5251 29.2998 24.8947C31.059 22.2642 31.9987 19.1711 32 16.0066C32.0012 13.9054 31.5884 11.8245 30.7853 9.88286C29.9821 7.94118 28.8043 6.17675 27.3191 4.69033C25.834 3.20392 24.0705 2.02464 22.1295 1.21987C20.1885 0.415089 18.108 0.000576049 16.0067 1.4153e-06ZM23.7028 23.3419C23.3804 23.6935 23.0271 24.0155 22.6472 24.304C20.8389 25.7669 18.5991 26.5933 16.274 26.6555H16.0067C15.6139 26.6536 15.2215 26.6313 14.8309 26.5887C12.513 26.3281 10.3445 25.3142 8.6581 23.7027V23.6893C8.31019 23.3681 7.98849 23.0196 7.69605 22.6472C6.23715 20.8376 5.41535 18.5976 5.35785 16.2739V16.0066C5.35975 15.6138 5.38207 15.2214 5.42472 14.8308C5.67637 12.5104 6.69148 10.3391 8.31069 8.658C8.6319 8.31008 8.98041 7.9884 9.3529 7.69604C11.1619 6.2253 13.4087 5.39802 15.7395 5.34446H16.0067C16.3951 5.34598 16.7831 5.36828 17.1691 5.41125C19.4944 5.65996 21.6708 6.67531 23.3554 8.29731C23.7002 8.62629 24.0217 8.97898 24.3173 9.35281C25.7765 11.1674 26.5981 13.4116 26.6555 15.7394V16.0066C26.6537 16.3995 26.6314 16.7919 26.5887 17.1824C26.3398 19.4998 25.3241 21.6676 23.7028 23.3419Z" fill="black"/>
<path d="M22.567 9.70023C21.2425 8.29109 19.4913 7.35678 17.5833 7.04138C17.1214 6.94933 16.6513 6.90455 16.1804 6.90772C16.1232 6.89663 16.0649 6.89214 16.0067 6.89434C14.1347 6.88591 12.3073 7.46545 10.7824 8.55119C10.3966 8.80735 10.0383 9.10287 9.71353 9.43299C8.30531 10.76 7.36732 12.5094 7.0413 14.4167C6.94928 14.8831 6.90453 15.3576 6.90772 15.833C6.89663 15.8902 6.89214 15.9484 6.89434 16.0067C6.8923 17.8735 7.47134 19.6947 8.55111 21.2175C8.81594 21.6048 9.11557 21.967 9.44629 22.2998C10.7764 23.7016 12.525 24.6345 14.4301 24.9586C14.8919 25.0507 15.362 25.0954 15.833 25.0922C15.8902 25.1033 15.9484 25.1078 16.0067 25.1056C17.8725 25.1143 19.6943 24.5397 21.2175 23.4622C21.6048 23.1974 21.9671 22.8977 22.2998 22.567C23.708 21.24 24.646 19.4906 24.972 17.5833C25.064 17.1214 25.1088 16.6513 25.1056 16.1804C25.1167 16.1232 25.1212 16.0649 25.119 16.0067C25.1295 14.1344 24.5498 12.3065 23.4622 10.7825C23.2015 10.3921 22.9015 10.0295 22.567 9.70023ZM21.7921 10.8359C20.8434 12.0518 19.5874 13.2142 18.0643 13.5081H18.0509C17.7743 13.2816 17.463 13.1012 17.1289 12.9737C17.8505 11.5841 17.944 9.94072 17.797 8.44427C19.3474 8.80081 20.7455 9.63781 21.7921 10.8359ZM16.0067 17.8906C15.6322 17.892 15.2657 17.782 14.9538 17.5748C14.6418 17.3676 14.3985 17.0724 14.2545 16.7266C14.1106 16.3809 14.0726 16.0002 14.1453 15.6328C14.218 15.2655 14.3982 14.928 14.663 14.6632C14.9278 14.3983 15.2653 14.2181 15.6327 14.1454C16.0001 14.0727 16.3808 14.1106 16.7265 14.2546C17.0722 14.3985 17.3675 14.6418 17.5747 14.9538C17.7819 15.2657 17.8919 15.6322 17.8905 16.0067C17.8908 16.2541 17.8423 16.4992 17.7477 16.7279C17.6532 16.9566 17.5144 17.1644 17.3394 17.3394C17.1644 17.5144 16.9566 17.6532 16.7279 17.7478C16.4992 17.8424 16.2541 17.8909 16.0067 17.8906ZM16.0067 8.23046C16.1497 8.22603 16.2929 8.23499 16.4342 8.2572C16.6346 9.79377 16.5678 11.504 15.686 12.7867C15.3303 12.8247 14.983 12.9194 14.6572 13.0672C14.1896 11.5841 13.0939 10.3549 11.9315 9.39287C13.1548 8.63258 14.5664 8.22991 16.0067 8.23046ZM10.8359 10.2213C12.0651 11.1699 13.2275 12.4259 13.5081 13.9491V13.9624C13.2856 14.2444 13.1097 14.5602 12.987 14.8977C11.5975 14.1628 9.95401 14.056 8.4442 14.2163C8.8008 12.666 9.63782 11.2679 10.8359 10.2213ZM8.23046 16.0067C8.22604 15.8636 8.23499 15.7205 8.25721 15.5791C9.79368 15.3787 11.5173 15.4455 12.8 16.3407C12.8363 16.6924 12.9312 17.0356 13.0806 17.3561C11.5841 17.8237 10.3549 18.9194 9.39287 20.0818C8.63258 18.8586 8.22991 17.4469 8.23046 16.0067V16.0067ZM10.2213 21.1774C11.1699 19.9348 12.4392 18.7724 13.9757 18.5052C14.2481 18.7274 14.555 18.9034 14.8843 19.0263C14.1628 20.4158 14.0693 22.0593 14.2162 23.5557C12.6692 23.1987 11.2725 22.3672 10.2213 21.1774V21.1774ZM16.0067 23.7695C15.8636 23.7739 15.7205 23.765 15.5791 23.7428C15.3786 22.1929 15.4588 20.4827 16.3407 19.2134C16.6924 19.177 17.0356 19.0821 17.3562 18.9327C17.8238 20.4292 18.906 21.6585 20.0684 22.6204C18.8497 23.3782 17.4418 23.7764 16.0067 23.7695V23.7695ZM21.1908 21.7787C19.9482 20.8434 18.7858 19.5741 18.5052 18.0376C18.7275 17.7604 18.9035 17.4491 19.0263 17.1157C20.0684 17.6634 21.2576 17.8639 22.42 17.8639C22.8039 17.862 23.1875 17.8397 23.569 17.7971C23.2086 19.3389 22.3775 20.7304 21.1908 21.7787V21.7787ZM23.7829 16.0067C23.7873 16.1497 23.7783 16.2928 23.7561 16.4342C22.2196 16.6347 20.496 16.5545 19.2134 15.6726C19.177 15.3209 19.0821 14.9777 18.9328 14.6572C20.4292 14.1896 21.6584 13.0939 22.6204 11.9315C23.3807 13.1548 23.7834 14.5664 23.7829 16.0067V16.0067Z" fill="black"/>
</svg>
