<svg width="32" height="32" viewBox="0 0 32 32" fill="none" xmlns="http://www.w3.org/2000/svg">
<path d="M0.933333 30.4667H3.73333C3.73333 30.2667 3.66667 30.0667 3.66667 29.8667C3.66667 27.8 5.33333 26.2 7.33333 26.2C9.4 26.2 11.0667 27.9333 11 30C11 30.1333 11 30.3333 10.9333 30.4667H20.2667C20.2667 30.2667 20.2 30.0667 20.2 29.8667C20.2 27.6 22.3333 25.7333 24.6667 26.2667C26.2 26.6 27.3333 27.8667 27.5333 29.4C27.6 29.7333 27.6 30.0667 27.5333 30.4667H30.1333C30.8 30.4667 31.3333 29.8667 31.2 29.2C30.6 24.9333 26.8667 21.6 22.4667 21.6H22.1333L16.7333 15.3333C16.5333 15.0667 16.2 14.9333 15.8667 14.9333H4.86667C4.33333 14.9333 3.86667 15.2667 3.73333 15.8L2.26667 21.6H2.13333C0.933334 21.6 0 22.5333 0 23.7333V29.5333C0 30 0.4 30.4667 0.933333 30.4667ZM19.0667 21.6H11.4V17.2667H15.3333L19.0667 21.6ZM5.73333 17.2H9.06667V21.5333H4.66667L5.73333 17.2Z" fill="black"/>
<path d="M7.33328 32C8.51149 32 9.46662 31.0449 9.46662 29.8667C9.46662 28.6885 8.51149 27.7333 7.33328 27.7333C6.15508 27.7333 5.19995 28.6885 5.19995 29.8667C5.19995 31.0449 6.15508 32 7.33328 32Z" fill="black"/>
<path d="M23.8667 32C25.0449 32 26.0001 31.0449 26.0001 29.8667C26.0001 28.6885 25.0449 27.7333 23.8667 27.7333C22.6885 27.7333 21.7334 28.6885 21.7334 29.8667C21.7334 31.0449 22.6885 32 23.8667 32Z" fill="black"/>
<path d="M24.9334 4.06667H16.2668V0H14.4001V4.06667H5.73343C4.53343 4.06667 3.6001 5 3.6001 6.2H27.0668C27.0668 5 26.0668 4.06667 24.9334 4.06667Z" fill="black"/>
<path d="M24.7335 10.3333C25.4001 10.3333 26.0001 9.79999 26.0001 9.06665C26.0001 8.39999 24.7335 6.79999 24.7335 6.79999C24.7335 6.79999 23.4668 8.39999 23.4668 9.06665C23.4668 9.73332 24.0001 10.3333 24.7335 10.3333Z" fill="black"/>
<path d="M20.7335 13C21.4001 13 22.0001 12.4667 22.0001 11.7333C22.0001 11.0667 20.7335 9.46667 20.7335 9.46667C20.7335 9.46667 19.4668 11.0667 19.4668 11.7333C19.4668 12.4 20.0001 13 20.7335 13Z" fill="black"/>
<path d="M16.6666 10.3333C17.3332 10.3333 17.9332 9.79999 17.9332 9.06665C17.9332 8.39999 16.6666 6.79999 16.6666 6.79999C16.6666 6.79999 15.3999 8.39999 15.3999 9.06665C15.3999 9.73332 15.9999 10.3333 16.6666 10.3333Z" fill="black"/>
<path d="M12.6666 13C13.3332 13 13.9332 12.4667 13.9332 11.7333C13.9332 11.0667 12.6666 9.46667 12.6666 9.46667C12.6666 9.46667 11.3999 11.0667 11.3999 11.7333C11.3999 12.4 11.9332 13 12.6666 13Z" fill="black"/>
<path d="M8.59992 10.3333C9.26659 10.3333 9.86658 9.79999 9.86658 9.06665C9.86658 8.39999 8.59992 6.79999 8.59992 6.79999C8.59992 6.79999 7.33325 8.39999 7.33325 9.06665C7.39992 9.73332 7.93325 10.3333 8.59992 10.3333Z" fill="black"/>
<path d="M4.59992 13C5.26659 13 5.86659 12.4667 5.86659 11.7333C5.86659 11.0667 4.59992 9.46667 4.59992 9.46667C4.59992 9.46667 3.33325 11.0667 3.33325 11.7333C3.33325 12.4 3.93325 13 4.59992 13Z" fill="black"/>
</svg>
