<svg width="32" height="19" viewBox="0 0 32 19" fill="none" xmlns="http://www.w3.org/2000/svg">
<path d="M29.2296 0H16.6955V1.39268H18.7845C19.1539 1.39268 19.5081 1.53941 19.7693 1.80059C20.0305 2.06177 20.1772 2.416 20.1772 2.78536V4.17804C20.1772 4.5474 20.0305 4.90164 19.7693 5.16281C19.5081 5.42399 19.1539 5.57072 18.7845 5.57072H16.6955C16.6955 5.7554 16.6221 5.93252 16.4915 6.06311C16.361 6.1937 16.1838 6.26706 15.9992 6.26706C15.8145 6.26706 15.6374 6.1937 15.5068 6.06311C15.3762 5.93252 15.3028 5.7554 15.3028 5.57072H13.2138C12.8444 5.57072 12.4902 5.42399 12.229 5.16281C11.9678 4.90164 11.8211 4.5474 11.8211 4.17804V2.78536C11.8211 2.416 11.9678 2.06177 12.229 1.80059C12.4902 1.53941 12.8444 1.39268 13.2138 1.39268H15.3028V0H2.7687C-0.0166615 13.5717 -0.0862955 13.5229 0.0320824 13.9268C0.470777 15.5771 4.04996 16.9768 9.0845 17.6661C8.91042 17.2135 8.83382 17.5547 13.2138 10.2501V8.35608C13.2138 8.1714 13.2872 7.99428 13.4178 7.86369C13.5483 7.73311 13.7255 7.65974 13.9101 7.65974C14.0948 7.65974 14.2719 7.73311 14.4025 7.86369C14.5331 7.99428 14.6065 8.1714 14.6065 8.35608V13.9268C14.6065 14.1115 14.5331 14.2886 14.4025 14.4192C14.2719 14.5498 14.0948 14.6231 13.9101 14.6231C13.7255 14.6231 13.5483 14.5498 13.4178 14.4192C13.2872 14.2886 13.2138 14.1115 13.2138 13.9268V12.9589C10.9716 16.6913 10.3658 17.7427 10.2961 17.8333C12.4222 18.0476 14.5589 18.1383 16.6955 18.1048C16.6955 17.8333 16.3473 18.453 21.5699 10.2501V8.35608C21.5699 8.1714 21.6432 7.99428 21.7738 7.86369C21.9044 7.73311 22.0815 7.65974 22.2662 7.65974C22.4509 7.65974 22.628 7.73311 22.7586 7.86369C22.8892 7.99428 22.9626 8.1714 22.9626 8.35608V13.9268C22.9626 14.1115 22.8892 14.2886 22.7586 14.4192C22.628 14.5498 22.4509 14.6231 22.2662 14.6231C22.0815 14.6231 21.9044 14.5498 21.7738 14.4192C21.6432 14.2886 21.5699 14.1115 21.5699 13.9268V12.8335L18.2483 18.0561C25.6365 17.7636 31.4022 16.0506 31.9662 13.9268C32.0777 13.5438 32.0777 13.7806 29.2296 0Z" fill="black"/>
</svg>
